<?xml version="1.0" standalone="no"?>
<!DOCTYPE svg PUBLIC "-//W3C//DTD SVG 20010904//EN"
 "http://www.w3.org/TR/2001/REC-SVG-20010904/DTD/svg10.dtd">
<svg version="1.0" xmlns="http://www.w3.org/2000/svg"
 width="600.000000pt" height="600.000000pt" viewBox="0 0 600.000000 600.000000"
 preserveAspectRatio="xMidYMid meet">
<metadata>
Created by potrace 1.14, written by Peter Selinger 2001-2017
</metadata>
<g transform="translate(0.000000,600.000000) scale(0.100000,-0.100000)"
fill="#000000" stroke="none">
<path d="M0 5530 c1 -268 5 -470 10 -470 5 0 15 -7 23 -15 13 -13 16 -11 26
15 5 17 12 30 15 30 3 0 1 -11 -4 -25 -8 -21 -7 -25 10 -25 11 0 20 -7 20 -15
0 -8 12 -22 27 -30 24 -14 25 -16 6 -12 -31 7 -29 -1 3 -13 17 -7 24 -15 20
-25 -6 -18 10 -30 18 -13 3 7 3 2 0 -11 -5 -19 -3 -23 10 -18 8 3 18 1 22 -5
5 -7 2 -8 -6 -3 -10 6 -12 3 -8 -13 4 -12 3 -20 -2 -17 -4 3 -10 -2 -14 -10
-3 -9 1 -15 11 -15 12 0 13 -3 4 -14 -9 -11 -8 -14 6 -12 14 1 18 -7 18 -37 0
-20 2 -37 5 -37 3 0 6 -26 8 -57 3 -60 7 -71 20 -59 4 4 9 316 11 692 l3 684
-131 0 -131 0 0 -470z m114 -468 c3 -5 -1 -9 -9 -9 -8 0 -12 4 -9 9 3 4 7 8 9
8 2 0 6 -4 9 -8z"/>
<path d="M418 5723 c-5 -501 1 -986 12 -997 7 -7 10 4 11 34 2 84 6 111 18
123 15 15 14 30 -1 21 -7 -4 -5 2 5 13 10 11 17 27 15 34 -2 8 3 13 9 12 7 -2
18 6 25 16 11 18 13 18 24 3 7 -9 16 -14 20 -10 4 4 1 14 -6 23 -8 10 -9 15
-1 15 6 0 11 -4 11 -9 0 -15 35 -18 49 -4 10 11 16 11 26 3 8 -7 19 -9 25 -5
5 3 10 2 10 -3 0 -5 11 -14 25 -20 26 -12 57 -3 78 23 5 6 6 2 3 -8 -3 -11 -2
-16 4 -12 6 3 10 13 10 21 0 16 9 18 43 5 20 -8 27 -6 31 5 4 10 2 12 -6 8 -7
-4 -8 -3 -4 5 4 6 11 9 16 6 5 -3 13 3 19 12 6 10 11 13 11 8 0 -6 -5 -16 -12
-23 -9 -9 -8 -12 5 -12 9 0 17 8 18 18 0 11 2 12 6 4 4 -10 8 -10 20 -1 12 11
13 8 8 -17 -5 -22 -4 -25 4 -14 6 8 11 24 11 35 1 19 2 19 10 -1 11 -28 27
-38 36 -23 4 7 3 9 -4 5 -16 -10 -25 11 -13 31 10 17 10 17 11 -1 0 -15 3 -16
15 -6 13 10 15 9 15 -10 0 -17 3 -20 13 -13 6 6 19 9 27 8 8 -2 27 -5 43 -8
16 -3 25 -2 22 4 -6 8 8 13 28 10 4 0 7 3 7 8 0 14 37 20 51 7 9 -8 10 -8 5 2
-5 9 4 12 33 12 32 0 41 4 41 18 0 14 2 15 10 2 6 -9 5 -20 -3 -30 -10 -13
-10 -13 5 -2 10 8 17 17 16 20 -3 26 3 35 14 24 9 -9 17 -7 36 11 l24 22 -6
-22 c-9 -29 11 -39 35 -17 18 16 19 16 19 -5 0 -14 -4 -20 -12 -15 -7 4 -8 3
-4 -5 6 -9 11 -9 22 0 12 10 13 9 8 -5 -3 -9 -16 -17 -28 -17 -19 -1 -19 -2
-2 -6 15 -4 16 -7 5 -14 -11 -7 -10 -11 6 -23 18 -13 17 -14 -15 -11 -19 2
-29 1 -22 -2 6 -2 9 -10 6 -15 -4 -6 -3 -8 2 -5 6 3 16 2 23 -2 9 -6 4 -11
-15 -15 -23 -6 -26 -9 -13 -16 11 -6 16 -24 17 -55 0 -25 -3 -43 -8 -40 -4 3
-6 -4 -3 -16 3 -11 9 -16 12 -10 8 13 48 10 48 -4 0 -31 4 -43 16 -41 22 3 98
94 108 129 8 29 34 55 45 45 1 -2 -20 -37 -48 -78 -28 -41 -72 -106 -98 -145
-26 -38 -64 -86 -85 -105 -20 -19 -41 -43 -47 -53 -8 -16 -7 -17 9 -8 10 5 36
27 58 49 26 26 45 37 58 34 26 -7 19 -33 -64 -257 -23 -62 -23 -84 -5 -210 28
-189 38 -303 26 -324 -13 -25 -13 -78 0 -86 5 -3 12 6 16 20 9 34 24 21 24
-21 0 -19 5 -34 10 -34 6 0 10 14 10 30 0 17 4 30 8 30 9 0 37 -121 48 -202 3
-27 9 -48 13 -48 4 0 12 17 18 38 l10 37 2 -33 c1 -29 4 -32 21 -27 17 6 20 2
20 -30 0 -33 2 -35 26 -29 22 6 32 0 65 -37 22 -24 42 -54 45 -66 4 -13 11
-23 18 -23 7 0 13 -22 14 -60 1 -33 1 -60 -2 -60 -2 0 -14 21 -27 47 -22 45
-103 133 -122 133 -12 0 -3 -157 14 -250 l12 -65 26 98 27 99 42 -46 c23 -25
42 -49 42 -54 0 -5 -9 -17 -20 -27 -11 -10 -20 -24 -20 -31 0 -7 -8 -21 -19
-31 -58 -56 -45 -169 23 -205 18 -10 18 -8 -2 17 -12 15 -22 37 -22 49 0 20 1
20 20 -4 l20 -25 0 28 c0 16 9 40 20 54 11 14 20 33 20 41 0 30 19 -2 22 -38
2 -19 4 21 4 90 3 233 44 548 94 730 16 58 32 139 35 180 17 209 38 266 152
401 41 49 78 89 82 89 4 0 38 27 75 61 38 33 96 74 129 90 65 31 81 36 57 16
-8 -7 -21 -23 -29 -37 -10 -17 3 -10 39 23 28 26 60 47 70 47 11 0 21 4 25 10
3 5 21 7 40 5 19 -3 37 0 40 6 4 5 15 7 26 4 10 -4 19 -2 19 3 0 5 11 8 25 7
14 -2 25 1 25 6 0 6 10 3 22 -5 27 -19 42 -21 32 -3 -4 6 7 -1 24 -17 18 -17
32 -25 32 -19 0 10 19 9 58 -3 7 -2 14 -2 16 -1 3 1 15 -7 28 -19 29 -26 59
-44 41 -23 -25 26 -12 30 18 5 26 -22 37 -25 67 -20 20 4 45 8 56 9 12 1 23 4
26 5 24 11 136 -6 183 -29 87 -42 134 -112 122 -184 -9 -52 -41 -127 -55 -127
-5 0 -10 -9 -10 -19 0 -11 -5 -23 -10 -26 -6 -4 -8 -10 -5 -14 2 -5 -9 -21
-25 -37 -16 -16 -30 -35 -30 -42 0 -7 -11 -29 -25 -50 -17 -26 -25 -50 -24
-78 1 -21 -1 -49 -5 -61 -5 -16 -2 -25 12 -32 11 -6 22 -24 25 -41 4 -18 13
-30 22 -30 8 0 24 -9 35 -20 12 -12 25 -18 31 -14 6 3 17 -3 25 -15 8 -11 25
-21 37 -22 12 0 54 -1 92 -2 79 -3 117 -21 121 -60 2 -20 -5 -28 -34 -40 -61
-24 -104 -36 -162 -43 -30 -3 -68 -12 -85 -19 -16 -7 -63 -22 -102 -34 -40
-12 -75 -26 -78 -32 -4 -5 -19 -9 -35 -9 -66 0 -180 -127 -180 -201 0 -22 4
-39 8 -39 8 0 22 -68 46 -230 7 -47 14 -148 15 -224 1 -76 4 -142 6 -146 3 -5
-3 -31 -12 -59 -15 -48 -23 -56 -99 -107 -46 -30 -86 -64 -89 -75 -6 -19 -8
-18 -37 6 -16 14 -41 25 -54 25 -30 0 -94 -26 -94 -38 0 -4 14 -30 30 -56 30
-46 32 -48 68 -42 60 11 81 9 107 -8 21 -14 25 -24 25 -70 0 -60 5 -69 31 -55
12 6 19 21 19 39 0 47 19 45 68 -7 26 -27 68 -66 95 -87 26 -21 45 -41 43 -43
-2 -3 -30 2 -60 11 -55 16 -56 16 -106 -9 -59 -30 -70 -31 -115 -6 -45 24 -86
16 -188 -36 -60 -30 -81 -36 -128 -34 -52 2 -58 0 -83 -30 -47 -56 -13 -103
47 -65 16 11 34 14 55 10 17 -4 75 -1 129 5 71 9 117 9 168 2 39 -6 105 -13
149 -16 43 -3 83 -8 89 -12 16 -10 -23 -33 -55 -33 -18 0 -28 -5 -28 -15 0 -9
-10 -20 -22 -25 -14 -5 -17 -9 -8 -10 13 0 13 -2 -1 -10 -8 -5 -61 -12 -117
-16 -91 -6 -105 -10 -127 -32 -14 -14 -25 -30 -25 -37 0 -6 -9 -20 -20 -30
-19 -17 -19 -19 -3 -38 16 -17 27 -19 89 -14 150 11 292 -23 287 -69 -9 -87
-14 -96 -75 -129 -18 -10 -37 -13 -55 -8 -44 11 -65 4 -105 -38 -21 -21 -45
-39 -54 -39 -8 0 -35 -9 -60 -21 -40 -18 -52 -19 -95 -10 -51 11 -153 59 -200
93 -30 22 -259 270 -296 321 -13 17 -23 27 -23 23 0 -4 37 -60 82 -124 68 -96
134 -169 374 -407 314 -313 307 -305 328 -357 12 -29 13 -39 2 -59 -29 -57
-28 -76 6 -104 18 -15 45 -32 60 -37 16 -6 28 -14 28 -19 0 -5 7 -9 15 -9 23
0 52 -38 65 -86 12 -41 10 -51 -19 -133 -36 -103 -38 -131 -14 -172 24 -41 77
-40 170 5 l71 34 19 -20 c15 -17 18 -37 18 -126 0 -134 9 -139 93 -53 72 75
94 78 162 21 86 -72 152 -99 421 -169 l156 -41 892 0 892 0 -3 57 -3 58 -60
32 c-33 18 -109 52 -170 77 -144 58 -474 208 -550 250 -33 19 -134 75 -225
126 -91 51 -309 162 -484 246 -364 175 -435 215 -505 283 -96 93 -91 70 -91
451 l0 335 45 90 c25 50 63 140 85 200 21 61 39 101 39 91 1 -13 4 -17 11 -10
5 5 10 43 12 84 2 53 7 74 15 73 17 -4 28 40 28 110 -1 48 2 56 15 51 73 -30
119 -20 164 37 25 32 80 146 113 234 33 88 49 482 23 560 -6 19 -25 45 -42 59
l-30 23 43 31 c24 16 63 52 85 78 40 48 41 52 46 134 4 67 11 95 31 134 15 27
27 59 27 72 0 13 5 34 11 48 9 19 8 45 -4 113 -19 101 -25 145 -31 223 -2 31
-16 85 -30 120 -15 35 -31 93 -37 128 -5 35 -21 92 -35 126 -14 33 -28 68 -32
76 -4 10 5 8 31 -8 29 -17 37 -18 37 -7 0 8 -4 15 -10 15 -5 0 -10 7 -10 17 0
15 1 15 19 -1 16 -15 19 -15 24 -2 4 10 1 13 -8 10 -9 -4 -13 1 -12 14 1 13 7
18 19 14 21 -5 23 6 4 31 -14 18 -14 18 -20 0 -3 -10 -4 -6 -2 9 2 19 -1 25
-11 21 -9 -4 -11 0 -7 12 6 15 2 17 -24 13 -17 -2 -29 -1 -26 4 3 4 -1 8 -8 8
-7 0 1 8 17 19 17 10 31 14 33 10 2 -5 12 -4 22 1 20 11 34 -1 36 -32 3 -32 5
-33 19 -8 7 14 21 25 31 25 10 0 18 9 21 24 4 30 22 53 35 45 5 -3 12 4 15 17
6 22 7 22 14 3 7 -18 8 -18 8 3 1 12 -6 28 -14 37 -19 19 -19 32 0 16 11 -9
19 -10 28 -1 11 8 13 4 10 -22 -3 -18 -1 -27 4 -21 4 6 16 10 26 8 9 -1 17 1
17 6 0 4 11 10 25 12 13 3 23 2 20 -1 -2 -4 6 -13 18 -21 21 -12 21 -12 7 5
-14 17 -13 18 2 12 12 -4 21 0 28 13 6 11 16 17 25 14 8 -4 15 -2 15 4 0 5 14
8 31 6 17 -2 38 0 46 5 25 13 51 2 46 -19 -4 -15 -1 -18 16 -13 12 3 21 12 21
20 0 8 -4 11 -10 8 -5 -3 -10 -1 -10 5 0 7 6 10 13 7 8 -3 20 -1 28 4 11 7 8
9 -9 9 -19 0 -21 2 -10 14 7 8 15 11 18 7 12 -14 43 -35 36 -23 -4 7 -1 15 8
18 9 3 14 10 11 14 -3 4 2 11 11 14 8 3 12 2 9 -3 -3 -5 -1 -13 5 -16 6 -4 10
-3 9 2 -3 19 2 33 12 33 6 0 8 -8 5 -17 -5 -15 -4 -15 9 1 12 16 12 22 2 35
-9 12 -9 13 1 7 7 -4 12 -2 12 6 0 10 2 10 9 -1 5 -8 7 -21 4 -30 -4 -11 0
-10 11 4 10 11 15 15 12 8 -10 -19 11 -24 29 -7 9 9 19 14 22 10 4 -3 16 2 27
11 12 10 15 11 9 3 -17 -19 -16 -30 2 -30 8 0 15 6 15 14 0 8 7 16 15 20 8 3
15 1 15 -3 0 -5 -5 -11 -11 -13 -6 -2 0 -12 12 -23 18 -16 21 -17 16 -4 -3 11
0 16 10 15 9 0 18 5 21 13 3 10 -1 12 -17 8 -11 -3 -21 -1 -21 4 0 5 17 9 37
9 29 0 34 3 25 12 -7 7 -12 17 -12 22 0 6 7 0 16 -12 9 -13 14 -31 11 -42 -2
-10 0 -24 5 -31 8 -11 9 -11 5 1 -2 8 0 25 4 37 5 14 4 23 -3 25 -8 3 -8 10
-1 22 9 17 11 16 18 -10 7 -26 8 -27 15 -9 8 19 9 19 9 -1 1 -12 8 -24 16 -28
13 -5 14 -2 4 15 -11 21 -4 41 9 24 13 -19 51 -35 57 -25 3 6 -5 14 -19 20
-14 5 -26 15 -26 22 0 10 2 10 8 1 4 -7 17 -14 27 -16 11 -1 25 -6 32 -10 7
-5 14 4 18 24 4 19 10 27 14 20 5 -8 14 -3 27 15 10 14 25 33 32 40 12 12 12
17 0 31 -7 10 -8 14 -1 10 6 -4 14 -3 18 3 4 6 11 7 17 4 7 -5 9 -1 5 9 -3 9
-2 19 3 22 6 4 10 117 10 281 l0 274 -2685 0 -2685 0 -2 -277z m2846 -158 c11
-8 16 -15 10 -15 -5 0 -18 7 -28 15 -11 8 -16 15 -10 15 5 0 18 -7 28 -15z
m71 -25 c10 -11 16 -20 13 -20 -3 0 -13 9 -23 20 -10 11 -16 20 -13 20 3 0 13
-9 23 -20z m105 -65 c0 -3 -18 4 -40 15 -22 11 -40 23 -40 25 0 3 18 -4 40
-15 22 -11 40 -23 40 -25z m-1185 -53 c-26 -23 -93 -71 -120 -86 -25 -15 -27
-15 -10 -1 56 46 174 125 130 87z m438 -29 c-7 -2 -19 -2 -25 0 -7 3 -2 5 12
5 14 0 19 -2 13 -5z m-70 -10 c-7 -2 -21 -2 -30 0 -10 3 -4 5 12 5 17 0 24 -2
18 -5z m932 -13 c10 -11 16 -20 13 -20 -3 0 -13 9 -23 20 -10 11 -16 20 -13
20 3 0 13 -9 23 -20z m1755 -96 c0 -8 -19 -13 -24 -6 -3 5 1 9 9 9 8 0 15 -2
15 -3z m-530 -113 c0 -14 -29 -21 -36 -9 -4 6 -3 8 4 4 6 -3 13 -2 17 4 8 12
15 13 15 1z m-2910 -4 c0 -2 -10 -12 -22 -23 l-23 -19 19 23 c18 21 26 27 26
19z m3124 -18 c-6 -11 -24 -2 -24 11 0 5 7 7 15 4 8 -4 12 -10 9 -15z m-199
-9 c3 -5 1 -10 -4 -10 -6 0 -11 5 -11 10 0 6 2 10 4 10 3 0 8 -4 11 -10z m-5
-25 c0 -2 -9 -9 -20 -15 -15 -8 -20 -8 -20 3 0 7 9 13 20 14 11 1 20 0 20 -2z
m-3030 -39 c0 -2 -8 -10 -17 -17 -16 -13 -17 -12 -4 4 13 16 21 21 21 13z
m2573 -18 c18 -12 37 -27 42 -33 19 -20 58 -50 53 -40 -7 12 12 39 28 42 7 1
11 -9 10 -22 0 -15 -6 -23 -13 -21 -13 6 -12 -8 6 -52 9 -21 19 -31 28 -28 8
3 11 1 8 -4 -14 -22 -38 -6 -117 76 -46 47 -84 90 -86 95 -6 15 8 10 41 -13z
m-2626 -87 c-43 -59 -58 -72 -37 -29 11 21 70 88 77 88 1 0 -16 -26 -40 -59z
m2716 44 c-3 -9 -8 -14 -10 -11 -3 3 -2 9 2 15 9 16 15 13 8 -4z m82 5 c3 -5
1 -10 -4 -10 -6 0 -11 5 -11 10 0 6 2 10 4 10 3 0 8 -4 11 -10z m125 -10 c0
-5 -5 -10 -11 -10 -5 0 -7 5 -4 10 3 6 8 10 11 10 2 0 4 -4 4 -10z m-209 -104
c16 -21 29 -46 29 -55 0 -9 -12 2 -27 24 -14 22 -44 63 -67 90 l-40 50 38 -35
c21 -19 51 -53 67 -74z m179 94 c0 -3 -6 -14 -12 -23 -12 -16 -13 -15 -13 6 0
13 6 24 13 24 6 0 12 -3 12 -7z m-3031 -56 c-47 -25 -69 -30 -52 -13 17 17 77
45 87 41 5 -3 -11 -15 -35 -28z m5 -39 c-18 -14 -54 -20 -54 -10 0 7 64 33 69
28 3 -2 -4 -10 -15 -18z m-122 -13 c-7 -2 -9 -9 -6 -15 5 -9 4 -9 -6 0 -15 13
-4 37 13 26 8 -5 8 -8 -1 -11z m19 -555 c-13 -13 -15 11 -4 40 7 16 8 15 11
-6 2 -13 -1 -28 -7 -34z m3096 -394 c-3 -10 -5 -2 -5 17 0 19 2 27 5 18 2 -10
2 -26 0 -35z m-47 -238 l-8 -40 -1 36 c0 20 2 39 6 42 11 11 11 4 3 -38z
m-940 -310 c-65 -24 -81 -26 -58 -8 19 15 70 31 98 32 15 0 0 -9 -40 -24z
m-248 -156 c-15 -30 -28 -56 -29 -58 -8 -13 -14 12 -9 33 6 24 55 90 62 83 2
-2 -9 -28 -24 -58z m201 -8 c12 -9 36 -12 78 -9 61 4 62 4 39 -14 -12 -10 -34
-18 -49 -18 -18 0 -22 -3 -13 -9 11 -6 10 -10 -4 -15 -12 -5 -23 -1 -31 10
-10 14 -20 15 -70 7 -60 -10 -143 -6 -143 6 0 13 52 32 101 38 42 5 46 8 37
23 -6 10 -8 26 -4 36 6 16 9 14 25 -12 10 -16 25 -35 34 -43z m184 -37 c-3 -3
-12 -4 -19 -1 -8 3 -5 6 6 6 11 1 17 -2 13 -5z m-40 -10 c-3 -3 -12 -4 -19 -1
-8 3 -5 6 6 6 11 1 17 -2 13 -5z m-157 -238 c0 -3 -4 -8 -10 -11 -5 -3 -10 -1
-10 4 0 6 5 11 10 11 6 0 10 -2 10 -4z m300 -46 c-11 -21 -20 -48 -20 -58 0
-11 -6 -25 -14 -31 -8 -7 -17 -23 -21 -38 -3 -14 -32 -64 -63 -112 -31 -47
-62 -97 -68 -111 -6 -14 -22 -42 -36 -62 l-25 -37 -31 32 c-52 55 -142 171
-142 185 0 7 13 32 29 56 16 23 32 63 36 89 4 26 11 50 16 53 5 3 6 16 3 28
-5 21 -1 24 40 30 33 5 53 3 78 -10 43 -22 116 -20 170 5 65 29 71 27 48 -19z
m-560 -220 c0 -21 -34 -45 -50 -35 -13 8 -13 31 0 56 9 15 15 17 30 9 11 -6
20 -19 20 -30z"/>
<path d="M5949 5983 c-5 -90 -4 -333 2 -333 7 0 23 -59 20 -74 -1 -4 4 -15 11
-24 11 -13 11 -14 -1 -7 -11 6 -12 5 -5 -6 4 -8 9 -29 9 -46 1 -18 4 -36 8
-40 4 -3 7 118 7 270 l0 277 -25 0 c-17 0 -25 -6 -26 -17z"/>
<path d="M5991 5424 c0 -11 3 -14 6 -6 3 7 2 16 -1 19 -3 4 -6 -2 -5 -13z"/>
<path d="M5695 5290 c-16 -7 -17 -9 -3 -9 9 -1 20 4 23 9 7 11 7 11 -20 0z"/>
<path d="M5635 5240 c-3 -5 -1 -10 4 -10 6 0 11 5 11 10 0 6 -2 10 -4 10 -3 0
-8 -4 -11 -10z"/>
<path d="M5309 5213 c0 -4 -2 -17 -4 -28 -3 -19 -3 -19 9 -2 15 20 27 22 22 5
-1 -7 -1 -10 1 -5 7 12 41 8 46 -5 3 -7 6 -3 6 9 1 16 -4 20 -18 16 -10 -3
-28 0 -40 6 -12 7 -21 8 -22 4z"/>
<path d="M5260 5189 c0 -4 7 -9 15 -13 9 -3 15 0 15 8 0 7 -7 13 -15 13 -8 0
-15 -4 -15 -8z"/>
<path d="M5185 5150 c-3 -6 1 -7 9 -4 18 7 21 14 7 14 -6 0 -13 -4 -16 -10z"/>
<path d="M4925 5101 c-3 -5 -2 -12 3 -15 5 -3 9 1 9 9 0 17 -3 19 -12 6z"/>
<path d="M1337 5060 c3 -11 7 -20 9 -20 2 0 4 9 4 20 0 11 -4 20 -9 20 -5 0
-7 -9 -4 -20z"/>
<path d="M1170 5025 c-10 -12 -10 -15 4 -15 9 0 16 7 16 15 0 8 -2 15 -4 15
-2 0 -9 -7 -16 -15z"/>
<path d="M1236 5032 c-3 -5 1 -9 9 -9 8 0 15 4 15 9 0 4 -4 8 -9 8 -6 0 -12
-4 -15 -8z"/>
<path d="M81 5014 c0 -11 3 -14 6 -6 3 7 2 16 -1 19 -3 4 -6 -2 -5 -13z"/>
<path d="M4657 5023 c-10 -9 -9 -33 1 -33 4 0 8 9 8 20 0 23 0 22 -9 13z"/>
<path d="M1200 5010 c0 -5 5 -10 11 -10 5 0 7 5 4 10 -3 6 -8 10 -11 10 -2 0
-4 -4 -4 -10z"/>
<path d="M803 4987 c0 -8 6 -14 14 -14 9 0 10 4 2 14 -6 7 -12 13 -14 13 -1 0
-2 -6 -2 -13z"/>
<path d="M516 4964 c-9 -23 -8 -24 14 -24 23 0 26 13 6 29 -11 9 -15 8 -20 -5z"/>
<path d="M4530 4970 c-8 -5 -18 -6 -22 -4 -4 3 -8 0 -8 -6 0 -10 36 -5 49 6
10 9 -6 12 -19 4z"/>
<path d="M750 4960 c0 -5 7 -10 16 -10 8 0 12 5 9 10 -3 6 -10 10 -16 10 -5 0
-9 -4 -9 -10z"/>
<path d="M486 4947 c3 -10 9 -15 12 -12 3 3 0 11 -7 18 -10 9 -11 8 -5 -6z"/>
<path d="M566 4944 c-6 -15 -4 -15 11 -3 10 7 20 15 22 16 2 2 -3 3 -11 3 -9
0 -19 -7 -22 -16z"/>
<path d="M4551 4659 c6 -12 13 -47 16 -78 2 -31 9 -57 14 -59 5 -2 9 -11 10
-20 0 -9 5 -4 11 12 8 22 7 30 -3 37 -12 7 -11 9 1 9 12 0 13 2 1 9 -8 5 -11
16 -6 30 4 13 2 21 -5 21 -6 0 -8 5 -5 10 3 6 1 10 -4 10 -6 0 -11 9 -11 20 0
11 -7 20 -15 20 -13 0 -14 -4 -4 -21z"/>
<path d="M1471 4614 c0 -11 3 -14 6 -6 3 7 2 16 -1 19 -3 4 -6 -2 -5 -13z"/>
<path d="M4615 4440 c3 -5 8 -10 11 -10 2 0 4 5 4 10 0 6 -5 10 -11 10 -5 0
-7 -4 -4 -10z"/>
<path d="M2196 4395 c-9 -26 -7 -32 5 -12 6 10 9 21 6 23 -2 3 -7 -2 -11 -11z"/>
<path d="M5782 4094 c2 -20 9 -30 23 -32 41 -6 49 -12 37 -24 -13 -13 -15 -72
-3 -103 7 -16 9 -14 14 14 4 19 7 49 7 67 0 24 5 34 15 34 11 0 15 -14 17 -57
l1 -58 6 60 c5 53 9 60 29 63 19 3 23 9 20 30 -3 23 -7 26 -28 22 -39 -7 -103
-5 -123 4 -16 8 -18 5 -15 -20z m148 -15 c0 -11 -12 -11 -35 -3 -12 5 -14 9
-4 14 14 9 39 2 39 -11z m-60 1 c0 -5 -11 -10 -25 -10 -14 0 -25 5 -25 10 0 6
11 10 25 10 14 0 25 -4 25 -10z"/>
<path d="M276 4075 c-3 -8 -1 -15 4 -15 6 0 10 7 10 15 0 8 -2 15 -4 15 -2 0
-6 -7 -10 -15z"/>
<path d="M405 4060 c-3 -5 1 -10 9 -10 9 0 16 5 16 10 0 6 -4 10 -9 10 -6 0
-13 -4 -16 -10z"/>
<path d="M2288 3663 c-16 -7 -32 -12 -36 -12 -19 3 -33 -2 -28 -9 5 -8 51 -14
109 -15 15 0 27 -3 27 -7 0 -7 15 -14 85 -41 28 -10 28 -12 10 -19 -17 -7 -17
-9 -2 -9 9 -1 17 -5 17 -9 0 -5 16 -17 35 -27 19 -11 32 -21 30 -23 -2 -3 8
-20 22 -39 14 -18 23 -36 20 -40 -4 -3 -26 0 -51 6 -71 18 -204 14 -251 -8
-39 -18 -77 -51 -58 -51 6 0 21 8 34 18 13 10 39 24 57 31 44 18 175 10 231
-15 l43 -19 -133 0 c-118 0 -140 -3 -187 -23 -29 -13 -57 -20 -62 -17 -14 9
-12 -19 2 -33 7 -7 22 -12 34 -12 12 0 27 -7 35 -16 13 -15 81 -54 96 -54 4 0
-6 9 -24 20 -17 10 -37 28 -43 40 -12 22 -5 44 12 34 6 -4 13 -2 17 3 3 6 23
13 44 16 37 6 37 6 37 -30 0 -46 27 -91 59 -97 42 -8 281 -19 281 -13 0 3 -4
17 -10 31 -13 36 4 33 31 -6 l23 -31 17 40 c9 22 22 44 28 47 6 4 11 31 11 61
0 30 4 64 8 77 13 35 -21 103 -70 138 -23 17 -45 30 -50 30 -5 0 -22 10 -37
21 -16 12 -34 19 -39 15 -6 -3 -23 -1 -39 5 -111 42 -283 64 -335 42z"/>
<path d="M2388 3213 c7 -3 16 -2 19 1 4 3 -2 6 -13 5 -11 0 -14 -3 -6 -6z"/>
<path d="M2468 3157 c-49 -6 -88 -14 -88 -19 0 -4 7 -8 15 -8 8 0 15 -5 15
-11 0 -7 -12 -10 -29 -7 -17 2 -28 1 -26 -3 10 -16 97 -49 129 -49 21 0 36 -6
40 -15 7 -19 27 -19 89 3 61 21 148 99 126 113 -18 11 -157 9 -271 -4z"/>
<path d="M1882 2970 c0 -14 2 -19 5 -12 2 6 2 18 0 25 -3 6 -5 1 -5 -13z"/>
<path d="M1690 2933 c0 -5 20 -29 45 -53 25 -24 45 -42 45 -39 0 3 -20 26 -45
52 -25 27 -45 44 -45 40z"/>
<path d="M1882 2925 c0 -11 4 -31 8 -45 l8 -25 0 25 c0 14 -3 34 -8 45 l-9 20
1 -20z"/>
<path d="M1832 2900 c1 -13 9 -25 16 -28 17 -5 15 23 -4 39 -14 11 -15 10 -12
-11z"/>
<path d="M1779 2631 c17 -31 76 -54 118 -46 29 5 33 10 33 36 l0 31 -31 -26
c-39 -33 -59 -33 -100 1 -30 26 -31 26 -20 4z"/>
</g>
</svg>
